<mxfile host="app.diagrams.net" agent="Mozilla/5.0 (Windows NT 10.0; Win64; x64) AppleWebKit/537.36 (KHTML, like Gecko) Chrome/133.0.0.0 Safari/537.36" version="26.1.0">
  <diagram id="C5RBs43oDa-KdzZeNtuy" name="Page-1">
    <mxGraphModel dx="989" dy="514" grid="1" gridSize="10" guides="1" tooltips="1" connect="1" arrows="1" fold="1" page="1" pageScale="1" pageWidth="827" pageHeight="1169" math="0" shadow="0">
      <root>
        <mxCell id="WIyWlLk6GJQsqaUBKTNV-0" />
        <mxCell id="WIyWlLk6GJQsqaUBKTNV-1" parent="WIyWlLk6GJQsqaUBKTNV-0" />
        <mxCell id="WIyWlLk6GJQsqaUBKTNV-2" value="" style="rounded=0;html=1;jettySize=auto;orthogonalLoop=1;fontSize=11;endArrow=block;endFill=0;endSize=8;strokeWidth=1;shadow=0;labelBackgroundColor=none;edgeStyle=orthogonalEdgeStyle;" parent="WIyWlLk6GJQsqaUBKTNV-1" edge="1">
          <mxGeometry relative="1" as="geometry">
            <mxPoint x="220.0344827586207" y="120" as="sourcePoint" />
            <mxPoint x="220" y="160" as="targetPoint" />
          </mxGeometry>
        </mxCell>
        <mxCell id="WIyWlLk6GJQsqaUBKTNV-12" value="&lt;font style=&quot;font-size: 10px;&quot;&gt;xValue = (move horizontally method) * (frame rate independence) * (move speed)&lt;/font&gt;" style="rounded=1;whiteSpace=wrap;html=1;fontSize=12;glass=0;strokeWidth=1;shadow=0;gradientColor=none;" parent="WIyWlLk6GJQsqaUBKTNV-1" vertex="1">
          <mxGeometry x="140" y="400" width="160" height="80" as="geometry" />
        </mxCell>
        <mxCell id="IGVqfGNU2S8visVFVWDx-2" value="&lt;font style=&quot;font-size: 10px;&quot;&gt;zValue = (move vertically method)&lt;/font&gt;&lt;span style=&quot;font-size: 10px;&quot;&gt;&amp;nbsp;* (frame rate independence) * (move speed)&lt;/span&gt;" style="rounded=1;whiteSpace=wrap;html=1;fontSize=12;glass=0;strokeWidth=1;shadow=0;" vertex="1" parent="WIyWlLk6GJQsqaUBKTNV-1">
          <mxGeometry x="140" y="520" width="160" height="80" as="geometry" />
        </mxCell>
        <mxCell id="IGVqfGNU2S8visVFVWDx-5" value="" style="rounded=0;html=1;jettySize=auto;orthogonalLoop=1;fontSize=11;endArrow=block;endFill=0;endSize=8;strokeWidth=1;shadow=0;labelBackgroundColor=none;edgeStyle=orthogonalEdgeStyle;" edge="1" parent="WIyWlLk6GJQsqaUBKTNV-1">
          <mxGeometry relative="1" as="geometry">
            <mxPoint x="219.66" y="480" as="sourcePoint" />
            <mxPoint x="219.66" y="520" as="targetPoint" />
          </mxGeometry>
        </mxCell>
        <mxCell id="IGVqfGNU2S8visVFVWDx-7" value="" style="rounded=0;html=1;jettySize=auto;orthogonalLoop=1;fontSize=11;endArrow=block;endFill=0;endSize=8;strokeWidth=1;shadow=0;labelBackgroundColor=none;edgeStyle=orthogonalEdgeStyle;" edge="1" parent="WIyWlLk6GJQsqaUBKTNV-1">
          <mxGeometry relative="1" as="geometry">
            <mxPoint x="219.77" y="600" as="sourcePoint" />
            <mxPoint x="219.77" y="640" as="targetPoint" />
          </mxGeometry>
        </mxCell>
        <mxCell id="IGVqfGNU2S8visVFVWDx-8" value="&lt;font style=&quot;font-size: 10px;&quot;&gt;Start&lt;/font&gt;" style="ellipse;whiteSpace=wrap;html=1;" vertex="1" parent="WIyWlLk6GJQsqaUBKTNV-1">
          <mxGeometry x="160" y="40" width="120" height="80" as="geometry" />
        </mxCell>
        <mxCell id="IGVqfGNU2S8visVFVWDx-11" value="" style="rounded=0;html=1;jettySize=auto;orthogonalLoop=1;fontSize=11;endArrow=block;endFill=0;endSize=8;strokeWidth=1;shadow=0;labelBackgroundColor=none;edgeStyle=orthogonalEdgeStyle;" edge="1" parent="WIyWlLk6GJQsqaUBKTNV-1" target="IGVqfGNU2S8visVFVWDx-20">
          <mxGeometry relative="1" as="geometry">
            <mxPoint x="219.66000000000003" y="720" as="sourcePoint" />
            <mxPoint x="360" y="320" as="targetPoint" />
            <Array as="points">
              <mxPoint x="220" y="760" />
              <mxPoint x="360" y="760" />
              <mxPoint x="360" y="320" />
            </Array>
          </mxGeometry>
        </mxCell>
        <mxCell id="IGVqfGNU2S8visVFVWDx-15" value="&lt;font style=&quot;font-size: 10px;&quot;&gt;Move player to these directions(xValue, 0, zValue)&lt;/font&gt;" style="shape=parallelogram;perimeter=parallelogramPerimeter;whiteSpace=wrap;html=1;fixedSize=1;" vertex="1" parent="WIyWlLk6GJQsqaUBKTNV-1">
          <mxGeometry x="140" y="640" width="160" height="80" as="geometry" />
        </mxCell>
        <mxCell id="IGVqfGNU2S8visVFVWDx-20" value="Update method" style="shape=parallelogram;perimeter=parallelogramPerimeter;whiteSpace=wrap;html=1;fixedSize=1;" vertex="1" parent="WIyWlLk6GJQsqaUBKTNV-1">
          <mxGeometry x="140" y="280" width="160" height="80" as="geometry" />
        </mxCell>
        <mxCell id="IGVqfGNU2S8visVFVWDx-21" value="" style="rounded=0;html=1;jettySize=auto;orthogonalLoop=1;fontSize=11;endArrow=block;endFill=0;endSize=8;strokeWidth=1;shadow=0;labelBackgroundColor=none;edgeStyle=orthogonalEdgeStyle;" edge="1" parent="WIyWlLk6GJQsqaUBKTNV-1">
          <mxGeometry relative="1" as="geometry">
            <mxPoint x="219.66" y="360" as="sourcePoint" />
            <mxPoint x="219.66" y="400" as="targetPoint" />
          </mxGeometry>
        </mxCell>
        <mxCell id="IGVqfGNU2S8visVFVWDx-22" value="" style="rounded=0;html=1;jettySize=auto;orthogonalLoop=1;fontSize=11;endArrow=block;endFill=0;endSize=8;strokeWidth=1;shadow=0;labelBackgroundColor=none;edgeStyle=orthogonalEdgeStyle;" edge="1" parent="WIyWlLk6GJQsqaUBKTNV-1">
          <mxGeometry relative="1" as="geometry">
            <mxPoint x="219.6944827586207" y="240" as="sourcePoint" />
            <mxPoint x="219.66" y="280" as="targetPoint" />
          </mxGeometry>
        </mxCell>
        <mxCell id="IGVqfGNU2S8visVFVWDx-23" value="&lt;font style=&quot;font-size: 10px;&quot;&gt;move speed = 10&lt;/font&gt;" style="rounded=1;whiteSpace=wrap;html=1;fontSize=12;glass=0;strokeWidth=1;shadow=0;gradientColor=none;" vertex="1" parent="WIyWlLk6GJQsqaUBKTNV-1">
          <mxGeometry x="140" y="160" width="160" height="80" as="geometry" />
        </mxCell>
      </root>
    </mxGraphModel>
  </diagram>
</mxfile>
